<svg width="18" height="42" xmlns="http://www.w3.org/2000/svg"><g fill="#FFF" fill-rule="nonzero"><path d="M13.755 2.763a.71.71 0 0 0-.987.22.736.736 0 0 0 .209 1.006c.077.052 1.917 1.326 1.917 4.492 0 3.175-1.765 4.45-1.835 4.497a.735.735 0 0 0-.2 1.013.715.715 0 0 0 .997.2c.1-.067 2.475-1.719 2.475-5.71 0-3.998-2.47-5.65-2.576-5.718zm-2.236 2.142a.71.71 0 0 0-.948.342.74.74 0 0 0 .328.973c.046.024 1.122.591 1.122 2.208 0 1.727-1.006 2.299-1.04 2.318a.734.734 0 0 0-.321.978.718.718 0 0 0 .964.327c.075-.039 1.833-.962 1.833-3.622 0-2.569-1.86-3.486-1.938-3.524zM8.25 13.704l-1.5-1.364-2.455-2.233a.751.751 0 0 0-.506-.195L1.5 9.913l-.007-4.816h3.013a.752.752 0 0 0 .643-.183l1.6-1.455 1.5-1.364v11.609h.001zM9.141.08c-.184-.08-.668-.216-1.2.267L6.75 1.431 4.368 3.597H1.493A1.499 1.499 0 0 0 0 5.096v4.817c0 .827.67 1.5 1.493 1.5H3.5l3.25 2.954 1.193 1.084c.3.273.585.35.81.35a.977.977 0 0 0 .39-.081c.183-.081.608-.347.608-1.065V1.143C9.75.647 9.523.25 9.14.08zM8.25 39.704V28.095l-1.5 1.364-1.601 1.455a.752.752 0 0 1-.643.183H1.493l.007 4.816h2.289c.187 0 .367.069.506.194L6.75 38.34l1.5 1.364zm.891-13.623c.382.17.61.566.61 1.062v13.512c0 .718-.425.984-.608 1.065a.977.977 0 0 1-.39.08c-.225 0-.51-.076-.81-.349L6.75 40.367 3.5 37.412H1.493A1.498 1.498 0 0 1 0 35.913v-4.817c0-.826.667-1.496 1.493-1.5h2.875l2.382-2.165 1.191-1.083c.532-.483 1.016-.348 1.2-.267zm6.647 7.576l1.697 1.697a.8.8 0 0 1-1.131 1.131l-1.697-1.697-1.697 1.697a.8.8 0 0 1-1.132-1.131l1.697-1.697-1.697-1.697a.8.8 0 0 1 1.132-1.132l1.697 1.697 1.697-1.697a.8.8 0 0 1 1.131 1.132l-1.697 1.697z"/></g></svg>