<svg width="42" height="42" xmlns="http://www.w3.org/2000/svg"><g fill="none" fill-rule="evenodd"><circle fill="#3D3E45" cx="21" cy="21" r="19.895"/><path d="M25.291 16.986c.28 0 .555.02.828.05-.744-3.428-4.448-5.976-8.676-5.976-4.728 0-8.6 3.189-8.6 7.238 0 2.336 1.288 4.255 3.44 5.744l-.86 2.56 3.007-1.492c1.076.21 1.939.428 3.013.428.27 0 .536-.013.802-.034a6.268 6.268 0 0 1-.266-1.783c0-3.718 3.227-6.735 7.312-6.735zm-4.623-2.308c.647 0 1.076.422 1.076 1.063 0 .637-.429 1.065-1.076 1.065-.645 0-1.292-.428-1.292-1.065 0-.64.647-1.063 1.292-1.063zm-6.02 2.128c-.644 0-1.294-.428-1.294-1.065 0-.64.65-1.063 1.295-1.063.644 0 1.074.422 1.074 1.063 0 .637-.43 1.065-1.074 1.065zm18.493 6.813c0-3.403-3.441-6.176-7.305-6.176-4.092 0-7.314 2.773-7.314 6.176 0 3.407 3.222 6.174 7.314 6.174.856 0 1.72-.212 2.58-.426l2.359 1.278-.647-2.126c1.727-1.282 3.013-2.981 3.013-4.9zm-9.677-1.066c-.428 0-.86-.421-.86-.851 0-.424.432-.85.86-.85.65 0 1.076.426 1.076.85 0 .43-.426.851-1.076.851zm4.73 0c-.424 0-.854-.421-.854-.851 0-.424.43-.85.854-.85.645 0 1.077.426 1.077.85 0 .43-.432.851-1.077.851z" fill-rule="nonzero" fill="#97D271"/></g></svg>