<svg width="43" height="42" xmlns="http://www.w3.org/2000/svg"><g transform="translate(.5)" fill="none" fill-rule="evenodd"><circle fill="#3D3E45" cx="21" cy="21" r="19.895"/><path d="M29.621 19.903c.053-1.578.149-10.003-8.66-9.955-8.805-.048-8.676 8.442-8.618 10.023-1.631 1.895-2.733 6.478-2.301 6.55 1.06.163 1.785-.382 2.301-.932.282-.303.312-.224.413.045.088.257.94 1.876 1.185 2.252.21.321.147.484-.24.558-.386.072-.925.393-1.287.882-.586.796-.002 1.588 1.187 1.97 3.438 1.103 6.058.035 6.283-.098.053-.034.487-.17.585-.204l.471-.032c.367 0 .56.067.56.067.253.072.396.14.672.239.245.085 2.974 1.131 6.331-.045 1.097-.378 1.582-1.086 1.093-1.788-.382-.53-.787-.85-1.444-1.016-.319-.085-.379-.167-.193-.421.254-.353 1.054-1.944 1.155-2.198.1-.238.2-.544.423-.224.417.599 1.6 1.259 2.348.944.697-.298-.917-4.853-2.264-6.617" fill="#71CBF2"/></g></svg>