<svg width="43" height="42" xmlns="http://www.w3.org/2000/svg"><g transform="translate(.25)" fill="none" fill-rule="evenodd"><circle fill="#3D3E45" cx="21" cy="21" r="19.895"/><g fill-rule="nonzero"><path d="M21.01 8.842c-.458 0-.916.025-1.372.074a12.331 12.331 0 0 0-3.152.788s8.212 8.08 8.421 8.389V9.47a25.138 25.138 0 0 1-.741-.234 12.71 12.71 0 0 0-3.155-.394z" fill="#FB8A88"/><path d="M29.582 12.365A12.215 12.215 0 0 0 25.76 9.79s.06 11.493 0 11.862l6.121-6.097c-.111-.234-.247-.455-.37-.677a11.834 11.834 0 0 0-1.93-2.513z" fill="#A0A1ED"/><path d="M32.265 16.504s-8.112 8.18-8.421 8.388H32.5c.075-.246.149-.48.235-.739.28-1.02.42-2.07.42-3.127.001-.457-.024-.914-.073-1.368-.149-1.108-.408-2.168-.815-3.153l-.002-.001z" fill="#8CABF0"/><path d="M20.22 25.792l6.122 6.097c.235-.111.458-.247.693-.37a11.993 11.993 0 0 0 3.437-2.944 12.15 12.15 0 0 0 1.67-2.784s-11.55.06-11.921 0z" fill="#73CBF1"/><path d="M17.092 23.882v8.623c.247.074.507.148.742.234 1.023.278 2.079.419 3.14.419.458 0 .916-.025 1.372-.074 1.08-.127 2.14-.392 3.154-.788 0-.025-8.2-8.118-8.41-8.414h.002z" fill="#97D271"/><path d="M16.226 20.298l-6.12 6.097c.11.234.247.456.37.69a11.955 11.955 0 0 0 2.957 3.424 12.217 12.217 0 0 0 2.795 1.663c0-.025-.06-11.518 0-11.874h-.002z" fill="#B5D66E"/><path d="M9.252 17.847a11.862 11.862 0 0 0-.408 3.128c0 .457.024.913.074 1.367.123 1.078.39 2.134.791 3.142 0 0 8.113-8.18 8.41-8.389H9.486c-.087.259-.173.493-.235.752z" fill="#FDD863"/><path d="M14.89 10.505c-.92.524-1.765 1.17-2.51 1.922-.334.332-.63.677-.915 1.022a12.15 12.15 0 0 0-1.67 2.784s11.55-.06 11.91 0l-6.134-6.085c-.223.11-.458.234-.68.357z" fill="#FFAF75"/></g></g></svg>