<svg width="43" height="42" xmlns="http://www.w3.org/2000/svg"><g transform="translate(.75)" fill="none" fill-rule="evenodd"><circle fill="#3D3E45" cx="21" cy="21" r="19.895"/><path d="M20.97 7.744c-.198.004-.396.16-.547.47l-3.551 7.4c-.242.409-.354.503-.941.558l-7.553.848c-.693.07-.848.52-.344 1.002l5.925 5.447c.28.261.284.373.205.732l-1.52 7.994c-.09.481.077.76.392.763h.008a.978.978 0 0 0 .466-.152l6.763-3.905c.475-.297.913-.307 1.38-.018l6.794 3.923c.604.35.996.074.87-.611l-1.163-6.379c.695-.236 1.37-.525 1.774-.85l-.164.032c-2.407.576-5.713.917-8.779.917-1.131 0-2.231-.04-3.285-.114l-.004.002a39.752 39.752 0 0 1-2.66-.272c-.314-.05.028-.253.028-.253l8.15-5.791s.213-.133.003-.161c-3.35-.524-7.063-.656-10.55-.656h-.241c2.356-.538 5.324-.859 8.55-.859 1.901 0 3.714.112 5.365.313-.001.003.933.13 1.38.203.345.053.023.252.023.252l-8.16 5.657s-.19.112.014.142c2.51.355 5.606.481 8.387.517l-.125-.686c-.063-.397 0-.534.298-.82l5.753-5.379c.51-.475.361-.922-.333-.992l-7.797-.772c-.595-.056-.729-.148-.914-.633l-3.336-7.4c-.15-.31-.35-.467-.548-.47h-.012z" fill-rule="nonzero" fill="#F5CE69"/></g></svg>