<svg width="42" height="42" xmlns="http://www.w3.org/2000/svg"><g fill="none" fill-rule="evenodd"><circle fill="#3D3E45" cx="21" cy="21" r="19.895"/><g fill-rule="nonzero" fill="#EC8686"><path d="M32.834 19.501v.004a.93.93 0 1 1-1.771-.576h-.002a4.595 4.595 0 0 0-.955-4.487 4.567 4.567 0 0 0-4.354-1.414.934.934 0 0 1-.389-1.825 6.421 6.421 0 0 1 6.125 1.987 6.466 6.466 0 0 1 1.346 6.311z"/><path d="M26.387 16.013a.803.803 0 0 1-.334-1.57 3.125 3.125 0 0 1 2.983.966c.779.864.987 2.042.654 3.075a.802.802 0 1 1-1.523-.494h-.001a1.534 1.534 0 1 0-1.779-1.977zm.712 4.554c-.343-.103-.577-.173-.397-.624.387-.98.427-1.824.007-2.426-.79-1.131-2.949-1.07-5.422-.03 0-.002-.778.34-.579-.278.38-1.227.323-2.255-.269-2.848-1.343-1.348-4.912.05-7.973 3.12-2.293 2.3-3.624 4.736-3.624 6.843 0 4.03 5.154 6.481 10.196 6.481 6.609 0 11.007-3.85 11.007-6.91 0-1.846-1.553-2.895-2.946-3.328zm-8.048 8.793c-4.023.4-7.496-1.425-7.757-4.074-.262-2.648 2.79-5.12 6.812-5.518 4.024-.4 7.496 1.425 7.757 4.073.261 2.65-2.788 5.12-6.812 5.52z"/><path d="M19.453 21.807c-1.914-.5-4.078.457-4.91 2.148-.847 1.727-.028 3.642 1.906 4.268 2.004.648 4.366-.345 5.187-2.208.81-1.82-.201-3.695-2.183-4.208zm-1.462 4.406c-.389.623-1.222.896-1.85.608-.618-.282-.801-1.006-.412-1.612.384-.606 1.19-.874 1.813-.613.63.27.831.988.45 1.617z"/></g></g></svg>