<svg width="22" height="22" xmlns="http://www.w3.org/2000/svg"><path d="M11 22C4.925 22 0 17.075 0 11S4.925 0 11 0s11 4.925 11 11-4.925 11-11 11zm4.486-12.499C15.603 6.253 14.012 4.01 11 4c-3.012-.009-4.603 2.253-4.491 5.501-.535 1.067-1.635 3.431-1.497 4.982.02.214.17.204.277.149.398-.207 1.043-1.274 1.108-1.274.098 1.652 1.41 2.575 1.41 2.575s-1.296.367-1.285.731c0 .135.176.238.561.28.617.07 1.572.055 2.08.055.696 0 1.567-.066 1.837-.085.267.019 1.14.085 1.836.085.503 0 1.464.015 2.079-.055.385-.042.557-.145.562-.28.011-.364-1.285-.73-1.285-.73s1.313-.924 1.41-2.576c.065 0 .71 1.067 1.107 1.274.109.055.252.065.278-.149.144-1.55-.962-3.915-1.501-4.982z" fill="#537BFF" fill-rule="nonzero"/></svg>