<svg width="84" height="20" xmlns="http://www.w3.org/2000/svg"><path d="M16.322 3.554h3.513V5.62h-4.05v2.314h3.802v1.983h-3.802v2.397h3.802v1.984h-3.802v2.396H20v1.818H9.917v1.323H7.521V8.512L6.446 9.917l-.165-.496v2.067c-.165.055-.468.137-.91.248-.33.055-.578.11-.743.165v5.454c.055 1.433-.606 2.177-1.983 2.232a25.97 25.97 0 0 1-2.15.082v-.165a14.588 14.588 0 0 0-.33-2.066H1.57c.551 0 .8-.275.744-.826v-4.05l-2.066.661L0 10.661a23.648 23.648 0 0 0 2.314-.578v-4.05H.248V3.802h2.066V.165h2.314v3.637h1.736v2.231H4.628v3.554l1.57-.496a30.04 30.04 0 0 0-.248-.91c-.165-.44-.275-.743-.33-.908C7.163 5.344 8.375 2.92 9.256 0l2.562.413a20.698 20.698 0 0 1-1.322 3.14h3.554c-.11-.385-.359-.963-.744-1.735-.22-.496-.386-.881-.496-1.157l2.397-.413a68.784 68.784 0 0 1 1.322 3.306h-.207zM9.917 14.298v2.396h3.471v-2.396h-3.47zm0-4.38v2.396h3.471V9.917h-3.47zm0-4.298v2.314h3.471V5.62h-3.47zm11.736-1.984V1.653h4.876V.083h2.397v1.57h4.958V.083h2.397v1.57h4.793v1.983h-4.793V4.96h-2.397V3.636h-4.958v1.075l1.24.165a12.67 12.67 0 0 1-.249.661.961.961 0 0 1-.165.248H40.91v2.066H28.595a22.434 22.434 0 0 1-1.818 2.645v9.256H24.38v-6.529a34.78 34.78 0 0 1-2.48 2.232 22.33 22.33 0 0 0-.33-1.323c-.165-.606-.303-1.047-.413-1.322 1.928-1.488 3.499-3.14 4.71-4.959h-4.214V5.785h5.372l.248-.496c.11-.165.193-.303.248-.413h-.992v-1.24h-4.876zm6.033 11.57v-1.983h6.116v-.413l2.644-1.736h-7.52v-1.9H40v1.735l-3.554 2.314h4.628v1.984h-4.793v1.983c0 1.543-.826 2.342-2.48 2.397h-.743c-1.047.055-1.929.055-2.645 0-.055-.22-.138-.634-.248-1.24-.11-.44-.193-.744-.248-.909h2.728c.826.055 1.212-.275 1.157-.992v-1.24h-6.116zm21.57-1.57c-.165-.165-.44-.496-.826-.991-.496-.606-.882-1.047-1.157-1.323v8.513H45.04v-7.521c-.55.606-1.24 1.24-2.066 1.9a30.868 30.868 0 0 0-.661-2.644c1.873-1.487 3.306-3.223 4.298-5.206h-3.885v-2.15h3.306A168.618 168.618 0 0 1 44.215.993L46.198 0c.827 1.212 1.488 2.259 1.984 3.14l-1.984 1.075h2.893v2.149a20.88 20.88 0 0 1-1.818 3.223v1.157l1.157-1.075 1.983 2.067V.826h10.744v12.15h-2.314V3.14h-6.198v10.083h-2.232v-.661l-1.157 1.074zm8.678 5.703c-1.598 0-2.397-.827-2.397-2.48v-2.561c-.771 1.818-2.7 3.663-5.785 5.537-.055-.11-.193-.276-.413-.496-.551-.606-.937-1.075-1.157-1.405 4.408-2.094 6.501-5.207 6.28-9.339.111-1.653.166-3.03.166-4.132h2.314c0 1.047-.055 2.396-.165 4.05a43.982 43.982 0 0 1-.413 3.388h1.322v4.545c-.055.661.22.992.826.992h.414c.66 0 1.019-.33 1.074-.992.165-.771.275-1.598.33-2.48.331.166 1.02.414 2.067.745v.248c-.055.66-.166 1.46-.33 2.396-.276 1.378-1.213 2.039-2.81 1.984h-1.323zM73.14 2.975V.826h10.331v2.15h-4.297l-.414 1.983h4.133V15.04h-2.067V7.107H75.62v7.934h-1.984V4.96h2.81l.33-1.984H73.14zm-9.586 5.868V6.694h1.074V1.736h2.066v4.958h1.57V.083h2.067v2.562h2.231v1.983h-2.231v2.066h2.562v2.149h-9.34zm18.512 10.826c-.826-.826-2.149-1.928-3.967-3.305-.881 1.267-2.59 2.479-5.124 3.636-.11-.165-.303-.44-.578-.826a23.459 23.459 0 0 1-.827-1.24c2.37-.771 3.857-1.598 4.463-2.48.716-.77 1.074-2.258 1.074-4.462l.083-2.81h2.149l-.083 2.644c-.11 1.543-.22 2.7-.33 3.472.33.275.854.66 1.57 1.157.661.55 1.735 1.35 3.223 2.396l-1.653 1.818zM67.77 14.215v-4.71h2.066v4.049c.55-.827 1.102-1.818 1.653-2.975l1.735 1.074c-1.818 3.967-4.71 6.694-8.678 8.182-.11-.22-.33-.634-.66-1.24a15.79 15.79 0 0 0-.497-.826c2.7-.882 4.656-2.067 5.868-3.554H67.77zm-2.48 1.322l-1.9-.992c.826-1.487 1.432-2.892 1.818-4.214l1.9.66c-.44 1.323-1.046 2.838-1.818 4.546z" fill="#FFF" fill-rule="evenodd"/></svg>