<svg width="70" height="70" xmlns="http://www.w3.org/2000/svg"><g fill="#6C6C74" fill-rule="evenodd"><path d="M38.38 57.286c-10.493 4.458-23.97 4.435-34.687-8.818-.067.074-.264.162-.166.41 2.417 6.017 9.139 16.04 22.43 19.769 5.248 1.472 12.189 2.356 20.865-.668 2.717-.943 5.715-2.517 8.084-4.234 3.028-2.196 4.926-4.43 5.528-5.099 1.181-1.323 2.057-4.181.746-6.953-1.646-3.46-5.776-5.36-9.99-2.384-3.835 2.694-7.307 5.717-12.81 7.977"/><path d="M53.273 20.727c8.896 6.853 15.497 18.437 9.61 34.048.1.02.272.148.433-.053 3.622-4.462 9-15.598 5.604-28.821-1.337-5.213-4.004-11.606-10.804-17.593-2.128-1.87-4.925-3.688-7.527-4.892-3.333-1.536-6.127-2.09-7.004-2.198-1.707-.215-4.52.17-6.204 2.64-2.106 3.08-1.672 7.55 2.892 9.728 4.153 1.987 8.394 3.509 13 7.14"/><path d="M14.13 25.598c1.735-11.176 8.803-22.61 25.537-24.95-.027-.096.003-.314-.26-.355C33.693-.552 21.16-.124 11.08 9.268c-3.976 3.71-8.35 9.15-10.345 18.057-.618 2.782-.868 6.133-.666 9.019.26 3.69 1.145 6.43 1.396 7.287.484 1.67 2.43 3.872 5.446 4.167 3.758.37 7.519-2.165 7.226-7.262-.264-4.63-.988-9.108-.008-14.938"/><path d="M45.92 32.595c.066-2.023.186-12.822-10.97-12.761-11.152-.061-10.989 10.823-10.915 12.849-2.066 2.429-3.463 8.302-2.916 8.394 1.345.211 2.262-.49 2.916-1.194.356-.388.394-.287.522.058.113.33 1.189 2.405 1.502 2.888.267.411.185.62-.303.716-.49.09-1.173.502-1.63 1.129-.743 1.022-.003 2.035 1.503 2.527 4.355 1.412 7.672.043 7.957-.127.069-.044.618-.217.742-.263l.596-.041c.464 0 .708.087.708.087.321.093.503.18.852.308.31.108 3.767 1.448 8.02-.06 1.39-.484 2.004-1.391 1.385-2.29-.485-.682-.998-1.092-1.83-1.304-.404-.109-.48-.214-.246-.54.323-.451 1.336-2.49 1.464-2.818.127-.304.255-.696.535-.286.53.768 2.027 1.613 2.976 1.21.882-.381-1.163-6.22-2.868-8.482"/></g></svg>